<?xml version="1.0" standalone="no"?>
<!DOCTYPE svg PUBLIC "-//W3C//DTD SVG 1.1//EN" "http://www.w3.org/Graphics/SVG/1.1/DTD/svg11.dtd" >
<svg>
<metadata>
Created by FontForge 20110222 at Mon Mar  7 12:09:07 2011
 By www-data
Generated by Fontographer 4.1
</metadata>
<defs>
<font id="NFLChargers2007" horiz-adv-x="369" >
  <font-face 
    font-family="NFL Chargers 2007"
    font-weight="400"
    font-stretch="normal"
    units-per-em="1000"
    panose-1="2 0 5 3 0 0 0 0 0 0"
    ascent="800"
    descent="-200"
    x-height="800"
    cap-height="800"
    bbox="0 0 516 800"
    underline-thickness="20"
    underline-position="-143"
    unicode-range="U+0020-007A"
  />
    <missing-glyph />
    <glyph glyph-name="space" unicode=" " horiz-adv-x="500" 
 />
    <glyph glyph-name="zero" unicode="0" horiz-adv-x="457" 
d="M0 738c0 36 28 62 66 62h241c38 0 66 -26 66 -62v-676c0 -36 -28 -62 -66 -62h-241c-38 0 -66 26 -66 62v676zM104 88h164v624h-164v-624z" />
    <glyph glyph-name="one" unicode="1" horiz-adv-x="240" 
d="M68 800h86v-800h-104v550h-50z" />
    <glyph glyph-name="two" unicode="2" horiz-adv-x="445" 
d="M373 562v176c0 36 -28 62 -66 62h-241c-38 0 -66 -26 -66 -62v-188l104 51v111h164v-167l-268 -457v-88h373v88h-259l242 401c11 18 16 42 17 73z" />
    <glyph glyph-name="three" unicode="3" horiz-adv-x="456" 
d="M373 520c-3 -38 -35 -51 -55 -55c34 -8 52 -27 55 -58v-345c0 -36 -28 -62 -66 -62h-241c-38 0 -66 26 -66 62v188l104 -50v-112h164v291h-116v88h117v245h-165v-111l-104 -51v188c0 36 28 62 66 62h241c38 0 66 -26 66 -62v-218z" />
    <glyph glyph-name="four" unicode="4" horiz-adv-x="470" 
d="M347 174h51v104h-51v522h-144l-203 -542v-84h242v-174h105v174zM242 622v-344h-126z" />
    <glyph glyph-name="five" unicode="5" horiz-adv-x="446" 
d="M0 800h373v-88h-269v-157h203c38 0 66 -26 66 -62v-431c0 -36 -28 -62 -66 -62h-241c-38 0 -66 26 -66 62v188l104 -51v-111h164v379h-268v333z" />
    <glyph glyph-name="six" unicode="6" horiz-adv-x="449" 
d="M105 712v-291h202c38 0 66 -26 66 -62v-297c0 -36 -28 -62 -66 -62h-241c-38 0 -66 26 -66 62v676c0 36 28 62 66 62h241c38 0 66 -26 66 -62v-188l-104 51v111h-164zM269 333h-165v-245h165v245z" />
    <glyph glyph-name="seven" unicode="7" horiz-adv-x="440" 
d="M104 0l146 712h-146v-111l-104 -51v250h373l-164 -800h-105z" />
    <glyph glyph-name="eight" unicode="8" horiz-adv-x="457" 
d="M0 738c0 36 28 62 66 62h241c38 0 66 -26 66 -62v-218c-3 -38 -35 -51 -55 -55c34 -8 52 -27 55 -58v-345c0 -36 -28 -62 -66 -62h-241c-38 0 -66 26 -66 62v345c2 26 19 50 55 58c-34 5 -52 24 -55 55v218zM104 467h164v245h-164v-245zM104 88h164v291h-164v-291z" />
    <glyph glyph-name="nine" unicode="9" horiz-adv-x="457" 
d="M268 88v291h-202c-38 0 -66 26 -66 62v297c0 36 28 62 66 62h241c38 0 66 -26 66 -62v-676c0 -36 -28 -62 -66 -62h-241c-38 0 -66 26 -66 62v188l104 -51v-111h164zM104 467h165v245h-165v-245z" />
    <glyph glyph-name="A" unicode="A" horiz-adv-x="430" 
d="M142 800l-142 -798l7 -2h72l28 174h146l28 -174h81l-141 800h-79zM180 633l62 -386h-124z" />
    <glyph glyph-name="B" unicode="B" horiz-adv-x="387" 
d="M302 364v-300c0 -40 -23 -64 -62 -64h-240v800h238c38 0 64 -26 64 -64v-259c-2 -31 -16 -51 -40 -58c25 -4 38 -22 40 -55zM220 727h-139v-273h139v273zM220 381h-139v-308h139v308z" />
    <glyph glyph-name="C" unicode="C" 
d="M304 64c0 -37 -26 -64 -64 -64h-176c-37 0 -64 27 -64 64v672c0 38 27 64 64 64h176c38 0 64 -26 64 -64v-147l-82 43v95h-141v-654h141v95l82 43v-147z" />
    <glyph glyph-name="D" unicode="D" horiz-adv-x="390" 
d="M0 800v-800h163c88 0 150 61 150 148v504c0 86 -63 148 -150 148h-163zM150 727c48 0 82 -34 82 -81v-491c0 -50 -34 -82 -86 -82h-65v654h69z" />
    <glyph glyph-name="E" unicode="E" horiz-adv-x="311" 
d="M0 800v-800h248v73h-167v297h147v74h-147v283h164v73h-245z" />
    <glyph glyph-name="F" unicode="F" horiz-adv-x="300" 
d="M0 800v-800h81v365h146v74h-146v288h161v73h-242z" />
    <glyph glyph-name="G" unicode="G" horiz-adv-x="383" 
d="M307 589l-82 43v95h-144v-654h144v262h-84v72h166v-343c0 -37 -26 -64 -64 -64h-179c-37 0 -64 27 -64 64v672c0 38 27 64 64 64h179c38 0 64 -26 64 -64v-147z" />
    <glyph glyph-name="H" unicode="H" horiz-adv-x="404" 
d="M237 800v-347h-156v347h-81v-800h81v379h156v-379h81v800h-81z" />
    <glyph glyph-name="I" unicode="I" horiz-adv-x="166" 
d="M0 800v-800h81v800h-81z" />
    <glyph glyph-name="J" unicode="J" 
d="M203 73v727h81v-736c0 -37 -26 -64 -64 -64h-155c-39 0 -65 26 -65 64v147l82 -43v-95h121z" />
    <glyph glyph-name="K" unicode="K" horiz-adv-x="386" 
d="M304 800h-90l-133 -331v331h-81v-800h81v356l150 -356h90l-176 414z" />
    <glyph glyph-name="L" unicode="L" horiz-adv-x="297" 
d="M0 800v-800h240v73h-159v727h-81z" />
    <glyph glyph-name="M" unicode="M" horiz-adv-x="488" 
d="M328 800l-127 -502l-126 502h-75v-800h78l-1 498l113 -424h23l112 423v-497h77v800h-74z" />
    <glyph glyph-name="N" unicode="N" horiz-adv-x="399" 
d="M237 800v-539l-175 539h-62v-800h78v550l178 -550h58v800h-77z" />
    <glyph glyph-name="O" unicode="O" horiz-adv-x="406" 
d="M64 800c-37 0 -64 -26 -64 -64v-672c0 -37 27 -64 64 -64h193c38 0 64 27 64 64v672c0 38 -26 64 -64 64h-193zM240 727v-654h-159v654h159z" />
    <glyph glyph-name="P" unicode="P" horiz-adv-x="366" 
d="M0 800v-800h81v313h156c38 0 64 27 64 64v359c0 38 -26 64 -64 64h-237zM219 727v-340h-138v340h138z" />
    <glyph glyph-name="Q" unicode="Q" horiz-adv-x="451" 
d="M64 800c-37 0 -64 -26 -64 -64v-671c0 -39 26 -65 64 -65h193c33 0 52 17 57 50c6 -4 21 -17 61 -50v88l-54 43v605c0 38 -26 64 -64 64h-193zM240 727v-528l-83 68v-87l83 -69v-37h-159v653h159z" />
    <glyph glyph-name="R" unicode="R" horiz-adv-x="401" 
d="M81 448v279h146v-279h-146zM263 377c27 0 45 26 45 64v295c0 38 -26 64 -64 64h-244v-800h81v377h95c9 -38 31 -164 64 -377h86z" />
    <glyph glyph-name="S" unicode="S" horiz-adv-x="377" 
d="M218 73v181c0 1 -64 88 -193 261c-16 21 -24 43 -24 64v157c0 38 27 64 64 64h170c37 0 65 -28 65 -63v-148l-82 43v95h-136v-159c0 -2 66 -89 195 -262c15 -20 22 -41 22 -62v-180c0 -37 -26 -64 -64 -64h-170c-39 0 -65 26 -65 64v148l82 -44v-94z" />
    <glyph glyph-name="T" unicode="T" horiz-adv-x="388" 
d="M0 800v-73h123v-727h81v727h122v73h-326z" />
    <glyph glyph-name="U" unicode="U" horiz-adv-x="400" 
d="M234 800v-727h-153v727h-81v-736c0 -37 27 -64 64 -64h187c38 0 64 27 64 64v736h-81z" />
    <glyph glyph-name="V" unicode="V" horiz-adv-x="383" 
d="M235 800l-77 -525l-78 525h-80l123 -800h68l123 800h-79z" />
    <glyph glyph-name="W" unicode="W" horiz-adv-x="588" 
d="M436 800l-65 -524l-78 524h-70l-78 -518l-64 518h-81l109 -800h67l82 572l82 -572h67l109 800h-80z" />
    <glyph glyph-name="X" unicode="X" horiz-adv-x="384" 
d="M156 281l76 -281h81l-116 413l116 387h-81l-76 -269l-75 269h-81l115 -387l-115 -413h81z" />
    <glyph glyph-name="Y" unicode="Y" horiz-adv-x="381" 
d="M197 0h-80v347l-117 453h81l75 -322l76 322h81l-116 -453v-347z" />
    <glyph glyph-name="Z" unicode="Z" horiz-adv-x="360" 
d="M21 800v-73h176c-1 -5 -67 -233 -197 -682v-45h291v73h-197c1 5 67 232 196 683l1 44h-270z" />
    <glyph glyph-name="a" unicode="a" horiz-adv-x="430" 
d="M142 800l-142 -798l7 -2h72l28 174h146l28 -174h81l-141 800h-79zM180 633l62 -386h-124z" />
    <glyph glyph-name="b" unicode="b" horiz-adv-x="387" 
d="M302 364v-300c0 -40 -23 -64 -62 -64h-240v800h238c38 0 64 -26 64 -64v-259c-2 -31 -16 -51 -40 -58c25 -4 38 -22 40 -55zM220 727h-139v-273h139v273zM220 381h-139v-308h139v308z" />
    <glyph glyph-name="c" unicode="c" 
d="M304 64c0 -37 -26 -64 -64 -64h-176c-37 0 -64 27 -64 64v672c0 38 27 64 64 64h176c38 0 64 -26 64 -64v-147l-82 43v95h-141v-654h141v95l82 43v-147z" />
    <glyph glyph-name="d" unicode="d" horiz-adv-x="390" 
d="M0 800v-800h163c88 0 150 61 150 148v504c0 86 -63 148 -150 148h-163zM150 727c48 0 82 -34 82 -81v-491c0 -50 -34 -82 -86 -82h-65v654h69z" />
    <glyph glyph-name="e" unicode="e" horiz-adv-x="311" 
d="M0 800v-800h248v73h-167v297h147v74h-147v283h164v73h-245z" />
    <glyph glyph-name="f" unicode="f" horiz-adv-x="300" 
d="M0 800v-800h81v365h146v74h-146v288h161v73h-242z" />
    <glyph glyph-name="g" unicode="g" horiz-adv-x="383" 
d="M307 589l-82 43v95h-144v-654h144v262h-84v72h166v-343c0 -37 -26 -64 -64 -64h-179c-37 0 -64 27 -64 64v672c0 38 27 64 64 64h179c38 0 64 -26 64 -64v-147z" />
    <glyph glyph-name="h" unicode="h" horiz-adv-x="404" 
d="M237 800v-347h-156v347h-81v-800h81v379h156v-379h81v800h-81z" />
    <glyph glyph-name="i" unicode="i" horiz-adv-x="166" 
d="M0 800v-800h81v800h-81z" />
    <glyph glyph-name="j" unicode="j" 
d="M203 73v727h81v-736c0 -37 -26 -64 -64 -64h-155c-39 0 -65 26 -65 64v147l82 -43v-95h121z" />
    <glyph glyph-name="k" unicode="k" horiz-adv-x="386" 
d="M304 800h-90l-133 -331v331h-81v-800h81v356l150 -356h90l-176 414z" />
    <glyph glyph-name="l" unicode="l" horiz-adv-x="297" 
d="M0 800v-800h240v73h-159v727h-81z" />
    <glyph glyph-name="m" unicode="m" horiz-adv-x="488" 
d="M328 800l-127 -502l-126 502h-75v-800h78l-1 498l113 -424h23l112 423v-497h77v800h-74z" />
    <glyph glyph-name="n" unicode="n" horiz-adv-x="399" 
d="M237 800v-539l-175 539h-62v-800h78v550l178 -550h58v800h-77z" />
    <glyph glyph-name="o" unicode="o" horiz-adv-x="406" 
d="M64 800c-37 0 -64 -26 -64 -64v-672c0 -37 27 -64 64 -64h193c38 0 64 27 64 64v672c0 38 -26 64 -64 64h-193zM240 727v-654h-159v654h159z" />
    <glyph glyph-name="p" unicode="p" horiz-adv-x="366" 
d="M0 800v-800h81v313h156c38 0 64 27 64 64v359c0 38 -26 64 -64 64h-237zM219 727v-340h-138v340h138z" />
    <glyph glyph-name="q" unicode="q" horiz-adv-x="451" 
d="M64 800c-37 0 -64 -26 -64 -64v-671c0 -39 26 -65 64 -65h193c33 0 52 17 57 50c6 -4 21 -17 61 -50v88l-54 43v605c0 38 -26 64 -64 64h-193zM240 727v-528l-83 68v-87l83 -69v-37h-159v653h159z" />
    <glyph glyph-name="r" unicode="r" horiz-adv-x="401" 
d="M81 448v279h146v-279h-146zM263 377c27 0 45 26 45 64v295c0 38 -26 64 -64 64h-244v-800h81v377h95c9 -38 31 -164 64 -377h86z" />
    <glyph glyph-name="s" unicode="s" horiz-adv-x="377" 
d="M218 73v181c0 1 -64 88 -193 261c-16 21 -24 43 -24 64v157c0 38 27 64 64 64h170c37 0 65 -28 65 -63v-148l-82 43v95h-136v-159c0 -2 66 -89 195 -262c15 -20 22 -41 22 -62v-180c0 -37 -26 -64 -64 -64h-170c-39 0 -65 26 -65 64v148l82 -44v-94z" />
    <glyph glyph-name="t" unicode="t" horiz-adv-x="388" 
d="M0 800v-73h123v-727h81v727h122v73h-326z" />
    <glyph glyph-name="u" unicode="u" horiz-adv-x="400" 
d="M234 800v-727h-153v727h-81v-736c0 -37 27 -64 64 -64h187c38 0 64 27 64 64v736h-81z" />
    <glyph glyph-name="v" unicode="v" horiz-adv-x="383" 
d="M235 800l-77 -525l-78 525h-80l123 -800h68l123 800h-79z" />
    <glyph glyph-name="w" unicode="w" horiz-adv-x="588" 
d="M436 800l-65 -524l-78 524h-70l-78 -518l-64 518h-81l109 -800h67l82 572l82 -572h67l109 800h-80z" />
    <glyph glyph-name="x" unicode="x" horiz-adv-x="384" 
d="M156 281l76 -281h81l-116 413l116 387h-81l-76 -269l-75 269h-81l115 -387l-115 -413h81z" />
    <glyph glyph-name="y" unicode="y" horiz-adv-x="381" 
d="M197 0h-80v347l-117 453h81l75 -322l76 322h81l-116 -453v-347z" />
    <glyph glyph-name="z" unicode="z" horiz-adv-x="360" 
d="M21 800v-73h176c-1 -5 -67 -233 -197 -682v-45h291v73h-197c1 5 67 232 196 683l1 44h-270z" />
  </font>
</defs>
</svg>
